<svg width="48" height="48" fill="none" xmlns="http://www.w3.org/2000/svg"><circle cx="24" cy="24" r="24" fill="#2C4258"/><path d="M24.548 7.175c-1.196.595-.698 1.439-.299 1.786-.797 1.34-2.75 4.078-4.186 4.316-1.435.238-4.734-.298-6.204-.595-.598-.834-1.346-.695-1.645-.521-.124.099-.254.416.225.893.478.476 1.146.297 1.42.148 1.37.447 4.35 1.548 5.307 2.382.957.833.847 2.728.673 3.572-.479-.172-.748.027-.822.148 0 .248.224.745 1.12.745.898 0 .524-.497.225-.745 1.077-1.547 2.641-2.182 3.29-2.306.657-.298 5.107.57 7.25 1.041.239.596 1.096.744 1.495.744 1.674 0 1.296-.694.897-1.041-1.017-.477-1.82-.248-2.093-.075-1.296-.397-4.29-1.488-5.905-2.679-1.615-1.19-.673-4.316 0-5.73 1.076.06 1.445-.67 1.495-1.041-.374-1.637-2.019-1.042-2.243-1.042z" fill="#ECD8BD"/><path d="M17.148 12.905l-.897-.149c-.12-.595-.847-1.34-1.196-1.637-2.631-1.965-4.535-1.414-5.158-.893-1.435 1.726.748 3.547 2.018 4.241 1.912 1.012 3.588.323 4.186-.148l.748.297c-.598.477-.865.602-1.495.819-2.64.91-5.88-1.985-6.429-3.126-1.076-2.678 1.246-3.299 2.542-3.274 3.588.298 5.282 2.704 5.68 3.87zM21.708 18.56l.299-.297c.275.137 1.504.82 1.868 1.711.229.559.157 1.38-.822 1.637-2.033.536-4.286-.273-5.158-.744-.897-.546-2.481-1.875-1.644-2.828.837-.952 2.541-.793 3.289-.595v.372c-.538-.119-1.221-.05-1.495 0-2.09.424-.748 2.158-.748 2.158s3.942 2.51 5.532 1.116c1.047-.918-.324-2.083-1.121-2.53zM24.997 12.31l.15-.67c2.51.178 4.584-1.166 5.306-1.86 2.452-2.739.025-5.11-1.495-5.954-4.006-1.667-7.2.248-8.297 1.414-1.734 2.739.324 4.862 1.57 5.581l-.523.595c-2.034-1.011-2.741-2.902-2.84-3.72-.48-2.858 2.441-4.663 3.96-5.21C30.365.404 32.697 4.745 32.92 7.176c-.598 4.524-5.531 5.308-7.923 5.135zM28.66 16.328l-.823-.372c1.794-1.25 4.933-1.216 6.279-1.042 6.279 1.34 5.158 3.572 5.158 4.018 0 .447-2.467 3.051-7.625 2.084-4.126-.774-5.008-2.654-4.933-3.497l.897.223c-.135 2.007 4.534 2.806 4.858 2.828.805.182 3.725.093 4.934-.968.7-.614 1.225-1.649-.598-2.902-3.266-2.245-6.852-1.091-8.148-.372zM21.053 35.614l.217-.227.057 2.977c.568 2.68 1.571 3.71 3.863 6.143 1.834 1.947 3.155 1.905 3.587 1.64l.248-.26c-.72.082-1.636-.063-3.836-2.225-1.76-1.729-2.649-3.396-2.874-4.014-.442-.681-.521-2.895-.505-3.916-.084-.484-.344-1.64-.72-2.39-.377-.75-.399-1.433-.363-1.68l-1.192 1.076c-.035.61.612 2.04.94 2.68l.578.196z" fill="#ECD8BD"/><path d="M26.259 30.156c.412 1.164.904 1.959 1.098 2.21-.198.034-.772.046-1.49-.172-.899-.273-1.54-.88-1.71-1.699-.17-.82.55-1.229.978-1.113.342.092.79.719.971 1.02-.134-.605-.628-1.012-.857-1.14-1.052-.285-1.31.623-1.308 1.112.129 1.374 1.298 1.886 1.866 1.97 1.083.447 1.85.12 2.892.242.835.096.933.771.878 1.097.493.367.361.437.234.427-.394-.455-1.229-.592-1.597-.603-.14-.148-.27-.042-.318.029 0 .33.23.23.343.139.75.065 1.226.356 1.372.493l-.059.603c.517.308.349.35.2.333-.368-.413-1.19-.575-1.555-.604-.181-.139-.302-.052-.339.009.027.37.255.289.366.202.75.098 1.148.336 1.253.443l-.08.582c.44.285.375.41.287.437-.463-.487-1.292-.597-1.65-.591-.152-.145-.26-.041-.296.028.05.295.264.215.365.139.731.066 1.147.343 1.264.474l-.07.551c.483.326.371.406.254.406-.411-.471-1.25-.584-1.617-.582-.176-.215-.291-.034-.327.083.1.26.256.173.32.097.644-.067 1.16.238 1.338.399-.229 1.822.186 3.47.506 4.37.32.9 1.051 3.28-.457 4.037-1.508.757-4.422-2.326-5.732-4.14-1.31-1.816-1.454-2.879-1.476-4.135-.018-1.005-.18-2.175-.26-2.634 1.032-.28 1.29-.203 2.3.32.81.419 1.462 2.322 1.686 3.221 1.398.513 2.48-.011 2.846-.338.052.692.312 1.112.436 1.236-.206-.392-.26-1.413-.262-1.874-.624 1.106-2.142.974-2.823.77-.157-.732-.72-2.394-1.718-3.188-.996-.794-2.112-.576-2.545-.367-.975-1.91-.916-2.966-.764-3.255 1.087-1.764 2.817-2.317 3.546-2.373.398-.042 1.299.165 1.711 1.329z" fill="#ECD8BD"/><path d="M23.876 29.56c-1.393-2.816-2.32-10.342-2.613-13.706.039-.393.23-1.388.221-.469-.032 3.36 1.546 12.679 2.513 14.01l-.121.164z" fill="#ECD8BD"/></svg>