<svg width="24" height="24" fill="none" xmlns="http://www.w3.org/2000/svg"><path d="M21.533 6.483c.015.24.015.481.015.722C21.548 14.544 16.6 23 7.553 23 4.767 23 2.178 22.089 0 20.508c.396.051.777.069 1.188.069 2.3 0 4.416-.877 6.106-2.372-2.162-.052-3.974-1.65-4.599-3.85.305.051.61.086.93.086.441 0 .883-.07 1.294-.19-2.254-.515-3.944-2.75-3.944-5.448v-.069c.654.413 1.416.67 2.223.705-1.325-.997-2.193-2.698-2.193-4.623a6.06 6.06 0 01.67-2.802c2.421 3.369 6.061 5.569 10.142 5.81a7.045 7.045 0 01-.122-1.272c0-3.06 2.193-5.552 4.92-5.552 1.416 0 2.695.67 3.593 1.753a9.041 9.041 0 003.122-1.34c-.366 1.289-1.142 2.371-2.162 3.059.99-.12 1.949-.43 2.832-.86-.67 1.1-1.508 2.08-2.467 2.87z" fill="#ECD8BD"/></svg>